<svg width="98" height="20" viewBox="0 0 98 20" fill="none" xmlns="http://www.w3.org/2000/svg">
<path d="M12.4601 9.19606C14.049 10.1349 14.8434 11.5523 14.8434 13.448C14.8434 15.1272 14.2656 16.4723 13.1101 17.4834C11.9546 18.4945 10.4108 19 8.47894 19H0.489548V0.0421109H7.96437C9.86016 0.0421109 11.3768 0.5296 12.5143 1.50458C13.6517 2.4615 14.2205 3.7705 14.2205 5.43157C14.2205 7.02042 13.6337 8.27525 12.4601 9.19606ZM7.82896 4.37534H5.33735V7.35444H7.82896C8.26228 7.35444 8.62339 7.22805 8.91227 6.97528C9.2192 6.70445 9.37267 6.33432 9.37267 5.86489C9.37267 5.41351 9.22823 5.05241 8.93935 4.78158C8.65047 4.51076 8.28034 4.37534 7.82896 4.37534ZM8.34353 14.6668C8.83102 14.6668 9.22823 14.5223 9.53517 14.2334C9.84211 13.9265 9.99558 13.5383 9.99558 13.0689C9.99558 12.5814 9.84211 12.1932 9.53517 11.9043C9.22823 11.6155 8.83102 11.471 8.34353 11.471H5.33735V14.6668H8.34353ZM21.0876 7.97734C21.3404 7.09264 21.8459 6.40655 22.6043 5.91906C23.3626 5.43157 24.2112 5.18782 25.15 5.18782V10.171C24.1209 10.0085 23.182 10.1981 22.3334 10.7398C21.5029 11.2814 21.0876 12.1661 21.0876 13.3939V19H16.5919V5.45865H21.0876V7.97734ZM36.0701 5.45865H40.5658V19H36.0701V17.7542C35.1493 18.8375 33.8674 19.3792 32.2243 19.3792C30.4188 19.3792 28.9022 18.7021 27.6744 17.348C26.4647 15.9758 25.8599 14.2696 25.8599 12.2293C25.8599 10.1891 26.4647 8.49191 27.6744 7.13778C28.9022 5.76559 30.4188 5.07949 32.2243 5.07949C33.8674 5.07949 35.1493 5.62115 36.0701 6.70445V5.45865ZM31.1681 14.3689C31.6917 14.9105 32.3778 15.1813 33.2264 15.1813C34.075 15.1813 34.7611 14.9105 35.2847 14.3689C35.8083 13.8272 36.0701 13.114 36.0701 12.2293C36.0701 11.3446 35.8083 10.6314 35.2847 10.0898C34.7611 9.54814 34.075 9.27731 33.2264 9.27731C32.3778 9.27731 31.6917 9.54814 31.1681 10.0898C30.6445 10.6314 30.3827 11.3446 30.3827 12.2293C30.3827 13.114 30.6445 13.8272 31.1681 14.3689ZM51.4323 5.07949C52.8948 5.07949 54.0864 5.58504 55.0072 6.59612C55.9461 7.58916 56.4155 9.02454 56.4155 10.9023V19H51.9198V11.471C51.9198 10.7669 51.7302 10.2342 51.3511 9.87313C50.99 9.51203 50.5025 9.33148 49.8886 9.33148C49.1845 9.33148 48.6338 9.54814 48.2366 9.98146C47.8574 10.3967 47.6678 11.0016 47.6678 11.796V19H43.1721V5.45865H47.6678V6.81279C48.4803 5.65726 49.7351 5.07949 51.4323 5.07949ZM65.3833 19.3792C63.325 19.3792 61.6098 18.6931 60.2376 17.3209C58.8654 15.9487 58.1793 14.2515 58.1793 12.2293C58.1793 10.2072 58.8654 8.50997 60.2376 7.13778C61.6098 5.76559 63.325 5.07949 65.3833 5.07949C66.7194 5.07949 67.9291 5.39546 69.0124 6.02739C70.1137 6.65932 70.9623 7.50791 71.5581 8.57316L67.7124 10.7939C67.2249 9.90924 66.4395 9.46689 65.3562 9.46689C64.5979 9.46689 63.966 9.72869 63.4604 10.2523C62.9549 10.7578 62.7021 11.4168 62.7021 12.2293C62.7021 13.0418 62.9549 13.7098 63.4604 14.2334C63.966 14.739 64.5979 14.9918 65.3562 14.9918C66.4756 14.9918 67.261 14.5404 67.7124 13.6376L71.5581 15.8584C70.9623 16.9417 70.1137 17.7993 69.0124 18.4313C67.9291 19.0632 66.7194 19.3792 65.3833 19.3792ZM81.2656 5.07949C82.7281 5.07949 83.9197 5.58504 84.8405 6.59612C85.7794 7.58916 86.2488 9.02454 86.2488 10.9023V19H81.7531V11.471C81.7531 10.7669 81.5635 10.2342 81.1844 9.87313C80.8232 9.51203 80.3358 9.33148 79.7219 9.33148C79.0177 9.33148 78.4671 9.54814 78.0698 9.98146C77.6907 10.3967 77.5011 11.0016 77.5011 11.796V19H73.0054V0.0421109H77.5011V6.81279C78.3136 5.65726 79.5684 5.07949 81.2656 5.07949ZM93.1847 7.97734C93.4375 7.09264 93.9431 6.40655 94.7014 5.91906C95.4597 5.43157 96.3083 5.18782 97.2471 5.18782V10.171C96.218 10.0085 95.2791 10.1981 94.4305 10.7398C93.6 11.2814 93.1847 12.1661 93.1847 13.3939V19H88.689V5.45865H93.1847V7.97734Z" fill="#1D48B7"/>
</svg>
