<svg width="323" height="139" viewBox="0 0 323 139" fill="none" xmlns="http://www.w3.org/2000/svg">
<path d="M147.626 22.0776L147.626 22.0778L147.639 22.0761C180.231 17.9389 209.002 20.3915 231.931 27.4527C254.849 34.51 271.928 46.1665 281.218 60.4759C285.825 67.5715 285.449 74.0473 281.228 79.9204C277.001 85.7996 268.932 91.055 258.213 95.6798C236.778 104.928 204.84 111.616 172.219 115.757C139.619 119.895 110.946 118.246 88.1143 111.985C65.2996 105.728 48.3387 94.8757 39.0549 80.5769C34.9072 74.1888 36.3772 67.6295 41.8432 61.2751C47.3017 54.9294 56.6976 48.8476 68.2076 43.4269C91.2265 32.5861 122.623 24.4249 147.626 22.0776Z" stroke="#1D48B7" stroke-width="0.731148"/>
<path d="M139.869 22.9581L139.877 22.957L139.884 22.9557C171.308 17.3338 200.491 18.4407 224.96 24.3997C249.417 30.3556 269.185 41.1623 281.836 54.9877C288.119 61.8543 289.273 68.3234 286.466 74.3578C283.655 80.3993 276.877 85.9975 267.315 91.0915C248.192 101.279 218.019 109.408 186.561 115.036C155.127 120.659 126.23 120.346 102.05 115.178C77.8897 110.014 58.4275 100.004 45.7842 86.1864C40.1213 79.9978 40.0432 73.3952 43.9707 66.8288C47.8958 60.2665 55.798 53.7847 65.959 47.8621C86.2809 36.017 115.567 26.449 139.869 22.9581Z" stroke="#1D48B7" stroke-width="0.731148"/>
<path d="M116.633 26.6252L116.643 26.6226L116.652 26.6196C144.515 18.1082 173.511 16.3717 200.319 19.8232C227.127 23.2746 251.805 31.9214 271.032 44.2271C290.154 56.4661 288.371 69.1335 274.751 80.9112C261.13 92.6901 235.713 103.53 207.8 112.057C179.924 120.573 151.598 123.054 125.468 120.347C99.3473 117.641 75.3597 109.744 56.1391 97.4421C47.4933 91.9085 44.1653 85.4474 44.7553 78.6669C45.3454 71.8851 49.855 64.8003 56.8424 58.0438C70.8195 44.5285 94.6627 32.3721 116.633 26.6252Z" stroke="#1D48B7" stroke-width="0.731148"/>
</svg>
