<svg width="223" height="115" viewBox="0 0 223 115" fill="none" xmlns="http://www.w3.org/2000/svg">
<path d="M101.952 18.2637L101.96 18.2628L101.968 18.2616C124.448 14.8554 144.278 16.8766 160.074 22.6827C175.858 28.4847 187.633 38.072 194.043 49.8558C197.218 55.6932 196.956 61.0136 194.052 65.8356C191.143 70.6656 185.587 74.9878 178.195 78.7948C163.412 86.4081 141.378 91.9171 118.863 95.3287C96.3735 98.7364 76.6076 97.3756 60.8804 92.2273C45.1707 87.0847 33.4789 78.1618 27.0747 66.3877C24.2197 61.139 25.2308 55.752 28.9941 50.5297C32.7543 45.3118 39.2301 40.3069 47.1703 35.8432C63.0506 26.9159 84.7109 20.1958 101.952 18.2637Z" stroke="#1D48B7" stroke-width="0.731148"/>
<path d="M96.6119 18.9891L96.6203 18.9877L96.6285 18.986C118.301 14.3577 138.416 15.2713 155.272 20.1713C172.118 25.0686 185.746 33.9574 194.471 45.3394C203.112 56.6114 197.669 66.62 184.464 75.017C171.277 83.4029 150.462 90.0981 128.75 94.7348C107.066 99.3653 87.1472 99.1043 70.4908 94.8549C53.8515 90.6099 40.4378 82.3783 31.7185 71.0041C27.8229 65.9223 27.7674 60.4998 30.4722 55.1018C33.1762 49.7054 38.6224 44.3714 45.6316 39.4947C59.6511 29.7406 79.8548 21.8625 96.6119 18.9891Z" stroke="#1D48B7" stroke-width="0.731148"/>
<path d="M80.5948 22.0039L80.6052 22.0007L80.615 21.9971C99.8263 14.992 119.809 13.5656 138.277 16.4039C156.748 19.2425 173.759 26.3553 187.019 36.4854C200.183 46.5427 198.962 56.9521 189.574 66.6426C180.183 76.3372 162.651 85.2641 143.388 92.2883C124.163 99.2985 104.639 101.337 86.6402 99.1113C68.6474 96.8861 52.1147 90.3919 38.8607 80.2661C32.9135 75.7226 30.6208 70.4153 31.0273 64.8397C31.4338 59.2623 34.5414 53.4324 39.3608 47.8696C49.0025 36.7408 65.4497 26.7329 80.5948 22.0039Z" stroke="#1D48B7" stroke-width="0.731148"/>
</svg>
