<svg width="77" height="77" viewBox="0 0 77 77" fill="none" xmlns="http://www.w3.org/2000/svg">
<g clip-path="url(#clip0_506_46)">
<path d="M70.1886 17.4466H28.9513C25.4619 17.4466 22.6071 20.3014 22.6071 23.7908V52.3397C22.6071 54.0223 23.2755 55.6359 24.4652 56.8257C25.655 58.0155 27.2687 58.6839 28.9513 58.6839H70.1886C73.7096 58.6839 76.5328 55.8607 76.5328 52.3397V23.7908C76.5328 22.1082 75.8644 20.4945 74.6746 19.3047C73.4848 18.115 71.8712 17.4466 70.1886 17.4466ZM70.1886 52.3397H28.9513V29.0882L49.5699 39.6513L70.1886 29.0882V52.3397ZM49.5699 34.2904L28.9513 23.7908H70.1886L49.5699 34.2904ZM16.2628 52.3397C16.2628 52.8789 16.358 53.3865 16.4215 53.9257H3.57445C1.82345 53.9257 0.402344 52.4983 0.402344 50.7536C0.402344 49.009 1.82345 47.5815 3.57445 47.5815H16.2628V52.3397ZM9.91865 22.2047H16.4215C16.358 22.744 16.2628 23.2515 16.2628 23.7908V28.5489H9.91865C8.17399 28.5489 6.74655 27.1215 6.74655 25.3768C6.74655 23.6322 8.17399 22.2047 9.91865 22.2047ZM3.57445 38.0652C3.57445 36.3206 5.00189 34.8931 6.74655 34.8931H16.2628V41.2373H6.74655C5.00189 41.2373 3.57445 39.8099 3.57445 38.0652Z" fill="white"/>
</g>
<defs>
<clipPath id="clip0_506_46">
<rect width="76.1304" height="76.1304" fill="white" transform="translate(0.402344)"/>
</clipPath>
</defs>
</svg>
