<svg width="75" height="75" viewBox="0 0 75 75" fill="none" xmlns="http://www.w3.org/2000/svg">
<path d="M18.75 68.75C17.0312 68.75 15.5604 68.1385 14.3375 66.9156C13.1125 65.6906 12.5 64.2188 12.5 62.5V31.25C12.5 29.5312 13.1125 28.0594 14.3375 26.8344C15.5604 25.6115 17.0312 25 18.75 25H21.875V18.75C21.875 14.4271 23.399 10.7417 26.4469 7.69375C29.4927 4.64792 33.1771 3.125 37.5 3.125C41.8229 3.125 45.5083 4.64792 48.5563 7.69375C51.6021 10.7417 53.125 14.4271 53.125 18.75V25H56.25C57.9688 25 59.4406 25.6115 60.6656 26.8344C61.8885 28.0594 62.5 29.5312 62.5 31.25V62.5C62.5 64.2188 61.8885 65.6906 60.6656 66.9156C59.4406 68.1385 57.9688 68.75 56.25 68.75H18.75ZM37.5 53.125C39.2188 53.125 40.6906 52.5135 41.9156 51.2906C43.1385 50.0656 43.75 48.5938 43.75 46.875C43.75 45.1562 43.1385 43.6844 41.9156 42.4594C40.6906 41.2365 39.2188 40.625 37.5 40.625C35.7812 40.625 34.3104 41.2365 33.0875 42.4594C31.8625 43.6844 31.25 45.1562 31.25 46.875C31.25 48.5938 31.8625 50.0656 33.0875 51.2906C34.3104 52.5135 35.7812 53.125 37.5 53.125ZM28.125 25H46.875V18.75C46.875 16.1458 45.9635 13.9323 44.1406 12.1094C42.3177 10.2865 40.1042 9.375 37.5 9.375C34.8958 9.375 32.6823 10.2865 30.8594 12.1094C29.0365 13.9323 28.125 16.1458 28.125 18.75V25Z" fill="white"/>
</svg>
