<svg width="75" height="75" viewBox="0 0 75 75" fill="none" xmlns="http://www.w3.org/2000/svg">
<g clip-path="url(#clip0_506_58)">
<path d="M37.5 0L46.875 14.0625H42.1875V23.4375H32.8125V14.0625H28.125L37.5 0ZM70.3125 32.8125V70.3125H4.6875V32.8125H70.3125ZM75 28.125H0V75H75V28.125Z" fill="white"/>
<path d="M37.5 37.5C39.3467 37.5 41.1753 37.8637 42.8815 38.5704C44.5876 39.2771 46.1379 40.313 47.4437 41.6188C48.7495 42.9246 49.7854 44.4749 50.4921 46.181C51.1988 47.8872 51.5625 49.7158 51.5625 51.5625C51.5625 53.4092 51.1988 55.2378 50.4921 56.944C49.7854 58.6501 48.7495 60.2004 47.4437 61.5062C46.1379 62.812 44.5876 63.8479 42.8815 64.5546C41.1753 65.2613 39.3467 65.625 37.5 65.625H60.9375V60.9375H65.625V42.1875H60.9375V37.5H37.5ZM23.4375 51.5625C23.4375 47.8329 24.9191 44.256 27.5563 41.6188C30.1935 38.9816 33.7704 37.5 37.5 37.5H14.0625V42.1875H9.375V60.9375H14.0625V65.625H37.5C33.7704 65.625 30.1935 64.1434 27.5563 61.5062C24.9191 58.869 23.4375 55.2921 23.4375 51.5625Z" fill="white"/>
</g>
<defs>
<clipPath id="clip0_506_58">
<rect width="75" height="75" fill="white"/>
</clipPath>
</defs>
</svg>
